<svg width="111" height="111" viewBox="0 0 111 111" fill="none" xmlns="http://www.w3.org/2000/svg">
<path d="M57.6199 67.0017L55.6108 63.7203H54.3783V70.6584H55.4605V65.613L57.5949 68.9212H57.635L59.7894 65.5916V70.6531H60.8716V63.7149H59.6341L57.6249 66.9963L57.6199 67.0017ZM15.5184 54.7983C15.6687 54.6804 30.4541 42.7719 35.5496 38.4986C35.1838 37.9088 34.7128 37.4048 34.1667 37.0134C33.6206 36.622 33.0093 36.3539 32.368 36.2252C32.1125 36.1769 31.852 36.1501 31.5914 36.1501C30.6495 36.1501 29.7276 36.4879 28.9811 37.1206L11.0542 52.1335C10.6484 52.4767 10.3177 52.9164 10.0922 53.4204C9.86676 53.9244 9.75152 54.482 9.75653 55.0396C9.75653 55.6026 9.88179 56.1549 10.1123 56.6589C10.3427 57.1629 10.6784 57.5972 11.0843 57.935L29.3819 72.8728C29.8228 73.2267 30.3288 73.4734 30.8599 73.5967C31.391 73.7254 31.9472 73.7254 32.4782 73.602C33.801 73.3071 34.9634 72.46 35.7249 71.2375L15.2729 55.0021L15.5184 54.7983ZM2.47656 41.4851V73.5967H2.72708C5.23223 73.5967 7.34156 71.1088 7.34156 68.1652V36H7.09105C4.54081 36 2.47656 38.461 2.47656 41.4851ZM96.3796 63.7203L93.5338 70.6584H94.606L95.2974 68.9212H98.489L99.1754 70.6584H100.283L97.4368 63.7203H96.3846H96.3796ZM95.7383 67.7684L96.8907 64.9106L98.048 67.7684H95.7383ZM66.2677 70.6584H71.1327V69.5003H67.3499V67.7631H70.5916V66.6049H67.3499V64.8677H71.1327V63.7096H66.2677V70.6477V70.6584ZM87.346 70.6584H88.4283V63.7203H87.346V70.6584ZM78.4478 63.7203H75.9977V70.6584H78.4478C80.512 70.6584 81.9399 69.141 81.9399 67.1894V67.1679C81.9399 65.2162 80.512 63.7149 78.4478 63.7149V63.7203ZM80.8627 67.2108C80.8627 68.5405 79.9108 69.5056 78.4478 69.5056H77.0799V64.8784H78.4478C79.9058 64.8784 80.8627 65.8596 80.8627 67.1894V67.2108ZM109.487 36H109.211C106.38 36 104.085 38.4718 104.085 41.5119V60.0958C103.66 60.0046 103.219 59.9564 102.773 59.9564H86.3991L96.2343 36.8043L95.9938 36.6595C95.4978 36.3432 94.9517 36.1448 94.3805 36.0751C93.8143 36.0054 93.2382 36.0751 92.692 36.2627C92.1058 36.4718 91.5697 36.8096 91.1088 37.26C90.6478 37.7104 90.2821 38.2627 90.0266 38.8793L81.0832 59.9617H74.4345C71.7039 53.4472 67.9011 44.4287 65.411 38.772C65.1654 38.1715 64.8097 37.6407 64.3638 37.201C63.9179 36.7667 63.3968 36.4397 62.8306 36.2413C62.2845 36.0536 61.7083 35.9946 61.1422 36.0643C60.576 36.134 60.0249 36.3378 59.5339 36.6541L59.2884 36.8043L69.0484 59.9564H51.8881C51.4372 59.9564 50.9963 60.0046 50.5755 60.0958V36H50.2999C47.4741 36 45.1743 38.461 45.1743 41.4851V67.0285V74.417H102.768C106.48 74.417 109.487 71.2536 109.487 67.3449V67.0232C109.487 67.0232 109.487 66.991 109.487 66.9749C109.487 66.9588 109.487 66.9427 109.487 66.932V36ZM108.429 67.3502C108.429 70.6263 105.889 73.2857 102.768 73.2857H46.2315V67.0285C46.2315 63.7525 48.7717 61.093 51.8932 61.093H102.768C105.889 61.093 108.429 63.7578 108.429 67.0285V67.3502Z" fill="white"/>
</svg>
